Coordinates
version=1
nRows=13
nColumns=36
inDegrees=yes

Units are S.I. units (second, meters, Newtons, ...)
If the header above contains a line with 'inDegrees', this indicates whether rotational values are in degrees (yes) or radians (no).

endheader
time	pelvis_tilt	pelvis_list	pelvis_rotation	pelvis_tx	pelvis_ty	pelvis_tz	hip_flexion_r	hip_adduction_r	hip_rotation_r	knee_angle_r	knee_angle_r_beta	ankle_angle_r	subtalar_angle_r	mtp_angle_r	hip_flexion_l	hip_adduction_l	hip_rotation_l	knee_angle_l	knee_angle_l_beta	ankle_angle_l	subtalar_angle_l	mtp_angle_l	lumbar_extension	lumbar_bending	lumbar_rotation	arm_flex_r	arm_add_r	arm_rot_r	elbow_flex_r	pro_sup_r	arm_flex_l	arm_add_l	arm_rot_l	elbow_flex_l	pro_sup_l
      0.00000000	    -12.07078117	     -2.27697772	     11.57553486	      0.50389491	      0.84944614	     -0.12506257	     70.28461069	     -2.44948747	      4.92774065	     39.55590955	      0.69038086	    -18.90312070	    -18.54238261	     -7.04350809	     57.03688661	      7.17997895	     -4.82193927	     69.08439382	      1.20575013	     16.84508736	    -22.90327639	     -7.04350809	    -41.19489412	     -8.58688532	     -0.62777306	     68.06446139	      7.80348154	     61.95073804	    120.50951795	    107.21038384	     73.09153767	      0.22961689	     75.27087794	    127.18447636	    101.14437578
      0.01666670	    -14.20788100	     -3.21436007	     11.02750285	      0.51108169	      0.84968762	     -0.12579356	     72.35670633	     -1.77262666	      6.58053007	     35.74806752	      0.62392148	    -13.95808957	    -16.52597309	     -7.12391678	     54.56738075	      5.61733135	     -4.43716309	     62.11158349	      1.08405164	     19.01943534	    -12.91175507	     -7.12391678	    -39.85296981	     -9.83290353	     -0.92734768	     66.63466347	      6.20548097	     65.39762987	    120.99259346	    108.92621651	     74.14353410	     -0.26932945	     81.53450960	    127.99819307	    101.22185437
      0.03333330	    -15.30805387	     -4.65407592	     12.57470398	      0.50176907	      0.84157482	     -0.12447071	     73.02194271	     -2.78714284	      4.49166394	     34.11698246	      0.59545367	    -11.27218497	    -12.87615409	     -7.14233501	     55.91930368	      5.15385398	     -2.76817237	     61.72301888	      1.07726990	     18.61732342	     -9.81266744	     -7.14233501	    -39.14705160	     -8.83466911	     -1.98056599	     66.03668774	      5.35918956	     65.89089591	    122.06658183	    108.28206083	     76.53211972	      0.04748784	     83.42050675	    128.80695200	    100.28661785
      0.05000000	    -15.14059882	     -5.33233125	     13.57773177	      0.50273618	      0.84150616	     -0.12664145	     72.77366473	     -3.64509954	      3.26092155	     33.35203396	      0.58210280	    -10.21414085	    -11.88763910	     -7.15046338	     56.42423009	      4.98623363	     -2.32648681	     62.37489681	      1.08864732	     20.41933013	     -6.16431151	     -7.15046338	    -39.86016023	     -8.68977934	     -2.75132875	     66.82974362	      4.10795443	     66.30711674	    122.69183810	    108.37755113	     78.22981397	      0.74063027	     85.00364923	    127.99881473	     99.57487435
      0.06666670	    -14.42148677	     -5.76444511	     14.44135474	      0.50274074	      0.84030736	     -0.12786530	     72.41164216	     -4.70669416	      2.36672784	     34.16808523	      0.59634559	     -8.92307536	    -12.02166950	     -7.28258592	     56.46174918	      4.93621502	     -2.02575685	     63.43189274	      1.10709538	     21.41028596	     -4.87732102	     -7.28258592	    -40.63348219	     -8.29524047	     -2.98500823	     66.86171454	      2.89641058	     66.42888902	    122.60950766	    106.98671170	     78.90920937	      1.64832069	     86.28847690	    127.22577251	     91.62070580
      0.08333330	    -14.40421132	     -6.44354847	     14.86162270	      0.50653125	      0.83391674	     -0.12681407	     72.73391671	     -5.15491455	      1.36741214	     35.27150669	      0.61560392	     -6.98610837	    -12.39191517	     -7.28778506	     57.72056491	      4.03836764	     -2.06290875	     65.65523398	      1.14590000	     22.67592726	     -3.72746750	     -7.28778506	    -40.27706725	     -8.22225880	     -3.33492210	     66.36571161	      2.49385290	     66.34853899	    122.74495939	    106.49785564	     79.20563964	      2.38487911	     86.77186905	    126.69257221	     91.33358042
      0.10000000	    -14.42917686	     -6.89110490	     15.29573406	      0.50151089	      0.83137876	     -0.12337708	     73.52393641	     -5.72198093	      1.11617106	     36.56977518	      0.63826298	     -6.17979441	    -12.71526487	     -7.29252393	     59.07810166	      3.52899976	     -2.24764849	     67.68538589	      1.18133284	     23.95745666	     -2.58532684	     -7.29252393	    -40.19326955	     -8.23579954	     -3.59004206	     66.38943746	      2.38760130	     65.84873380	    123.03626338	    105.97172740	     80.11970328	      2.84388954	     86.96257460	    126.70634386	     90.93948002
      0.11666670	    -14.22651063	     -7.34221549	     15.78700064	      0.50099815	      0.83678433	     -0.12375869	     73.26205848	     -6.32846898	      0.61368980	     36.70912504	      0.64069510	     -5.53945514	    -12.09949653	     -7.29649985	     59.14455009	      3.04392352	     -2.15290786	     67.67687921	      1.18118437	     23.92963134	     -1.85793691	     -7.29649985	    -40.57206622	     -8.05090192	     -3.77451453	     66.18365541	      2.48759469	     65.57191786	    122.89326459	    105.42998464	     80.27043269	      2.64454646	     87.42058590	    127.13887123	     90.57900276
      0.13333330	    -13.98292642	     -7.73066204	     16.33133013	      0.49277684	      0.83699188	     -0.12280527	     72.91422608	     -6.96045679	      0.42756651	     36.50060580	      0.63705575	     -5.66878760	    -11.35776303	     -7.30081361	     59.30867671	      2.76447335	     -2.18908225	     67.40088344	      1.17636733	     24.27377699	     -0.80904854	     -7.30081361	    -41.25431861	     -7.71756243	     -4.00984806	     67.06655313	      2.70277441	     65.30620255	    123.06486210	    104.78757287	     81.14617652	      2.29635594	     87.47234427	    127.97694908	     90.12589677
      0.15000000	    -14.05384276	     -8.08195967	     16.67274859	      0.49784879	      0.83631001	     -0.12116494	     72.73469828	     -7.48464870	      0.84371514	     35.86596094	      0.62597911	     -5.58235983	    -11.07853377	     -7.30263708	     59.47520484	      2.37838481	     -2.02727064	     66.90136185	      1.16764904	     24.29567904	     -0.63226939	     -7.30263708	    -41.31961392	     -7.80042823	     -3.96446929	     67.28555063	      2.72249433	     65.03285298	    123.07100862	    104.44245264	     81.09203512	      1.83525841	     87.77809519	    128.00176243	     89.97072851
      0.16666670	    -13.85610729	     -8.26915835	     17.06395055	      0.49873333	      0.83855538	     -0.12129636	     71.97258140	     -8.12162189	      0.85466856	     35.28725943	      0.61587886	     -5.40114233	    -11.03057581	     -7.32422689	     59.05360340	      2.07213734	     -2.06636721	     66.60481434	      1.16247331	     24.62906684	      0.43485465	     -7.32422689	    -41.93483699	     -7.80633281	     -4.41073526	     67.43984183	      3.46621911	     64.59568284	    122.79115520	    101.84477394	     81.45425733	      0.46015076	     88.72558905	    129.08276751	     88.01356736
      0.18333330	    -14.13365210	     -8.56168812	     17.60047967	      0.49938996	      0.84040691	     -0.12252819	     71.99892671	     -8.90713754	      1.61012690	     35.24682002	      0.61517306	     -5.30124107	    -11.13771991	     -7.33461421	     59.23669116	      1.85051661	     -2.26577532	     66.13860516	      1.15433642	     25.11488180	      1.50760037	     -7.33461421	    -42.11871937	     -8.01007759	     -4.77292702	     67.03695380	      3.92772210	     63.95367302	    122.71823259	    101.21210420	     81.55613544	     -0.04040973	     89.39839352	    129.20291552	     86.92624276
      0.20000000	    -14.55222051	     -8.92139206	     18.23466150	      0.49604482	      0.83929148	     -0.12055704	     72.42341800	     -9.70929862	      2.19567837	     35.35143958	      0.61699902	     -5.28945033	    -11.87468842	     -7.33659178	     59.49620605	      1.44882122	     -2.75521384	     65.42739154	      1.14192340	     26.03336750	      3.37412584	     -7.33659178	    -42.14670598	     -8.24683970	     -5.30818930	     66.99477733	      4.23124629	     63.43096009	    122.96968809	    101.09231541	     81.79512761	     -0.03459155	     89.22304299	    129.28031377	     86.81749856
